<?xml version="1.0" encoding="utf-8"?>
<!-- Generator: Adobe Illustrator 21.1.0, SVG Export Plug-In . SVG Version: 6.00 Build 0)  -->
<svg version="1.1" id="Layer_1" xmlns="http://www.w3.org/2000/svg" xmlns:xlink="http://www.w3.org/1999/xlink" x="0px" y="0px"
	 viewBox="0 0 108.8 21" style="enable-background:new 0 0 108.8 21;" xml:space="preserve">
<style type="text/css">
	.st0{fill-rule:evenodd;clip-rule:evenodd;fill:#EC4924;}
</style>
<g>
	<path class="st0" d="M81,10.6c0,3.4-1.8,5-5.5,5h-0.7V5.5h0.7C79.2,5.5,81,7.2,81,10.6L81,10.6z M75.8,1.2h-4.7
		c-0.7,0-1.2,0.4-1.2,1.1v16.5c0,0.7,0.4,1.1,1.2,1.1h4.7c6.2,0,10-3.5,10-9.4C85.8,4.7,82.1,1.2,75.8,1.2z"/>
	<path class="st0" d="M5.2,1.8C4.7,1.9,1.1,4.4,1.1,4.4v14.9c0,0.5,0.2,0.8,0.8,0.8h3.3c0.5,0,0.8-0.2,0.8-0.8V2.5
		C5.9,2,5.6,1.6,5.2,1.8z"/>
	<path class="st0" d="M21.1,1.4c-2.8,0-5.2,1.1-6.9,2.8V2.5c0-0.5-0.2-0.8-0.8-0.8h-3.3C9.6,1.8,9.3,2,9.3,2.5v16.8
		c0,0.5,0.2,0.8,0.8,0.8h3.3c0.5,0,0.8-0.2,0.8-0.8v-6.7c0-2.1,0.4-3.2,1.3-4.5c0.9-1.4,2.3-2.5,4.1-2.5c1.6,0,2.4,0.8,2.4,2.4v11.3
		c0,0.5,0.2,0.8,0.8,0.8H26c0.5,0,0.8-0.2,0.8-0.8V6.5C26.8,3.5,24.7,1.4,21.1,1.4z"/>
	<path class="st0" d="M44.6,13.8c-0.2-0.2-0.3-0.2-0.5-0.2c-0.2,0-0.3,0.1-0.5,0.2c-1.3,1.4-2.8,2.1-4.5,2.1c-2.9,0-5.1-2.1-5.1-5.2
		c0-3.3,2.3-5.3,5.1-5.3c1.9,0,3,0.6,4.3,1.9c0.2,0.2,0.3,0.2,0.5,0.2c0.2,0,0.3-0.1,0.5-0.2l1.9-2.4c0.2-0.2,0.2-0.4,0.2-0.5
		c0-0.2-0.1-0.4-0.3-0.6C44.9,2.2,42.6,1,39.2,1C33.6,1,29,4.8,29,10.6c0,6.4,4.7,9.6,10,9.6c3,0,5.3-0.8,7.7-3.4
		c0.2-0.2,0.2-0.3,0.2-0.5c0-0.2-0.1-0.3-0.2-0.4L44.6,13.8z"/>
	<path class="st0" d="M53.1,8.3c0.7-1.8,2.3-3.2,4.7-3.2c2.2,0,3.9,1.2,4.5,3.2H53.1L53.1,8.3z M57.9,1c-5.1,0-9.5,3.8-9.5,9.6
		c0,6.2,4.6,9.6,9.7,9.6c3.6,0,5.6-1,8.1-3.5c0.2-0.2,0.2-0.3,0.2-0.5c0-0.2-0.1-0.3-0.2-0.4l-2.1-2.1c-0.2-0.2-0.4-0.3-0.5-0.3
		c-0.2,0-0.4,0.1-0.6,0.4c-1.2,1.3-2.7,2.2-4.8,2.2c-2.5,0-4.5-1.3-5.1-3.7h13.3c0.5,0,0.8-0.2,0.8-0.8v-1.2C67.2,5.9,64.3,1,57.9,1
		z"/>
	<path class="st0" d="M98,15.8c-2.9,0-4.8-2.1-4.8-5.2c0-3.4,2.2-5.3,4.8-5.3c2.6,0,4.8,1.9,4.8,5.3C102.7,13.7,100.9,15.8,98,15.8
		L98,15.8z M98,1c-5.5,0-9.8,3.6-9.8,9.6c0,6.4,4.4,9.6,9.8,9.6c5.4,0,9.8-3.2,9.8-9.6C107.7,4.5,103.4,1,98,1z"/>
</g>
</svg>
